# xmcd
#
# Track frame offsets:
#	150
#	16277
#	29039
#	45487
#	56232
#	67496
#	80851
#	104754
#	123742
#	139939
#	159759
#	173827
#	184640
#	193081
#	211713
#	232762
#	246330
#	259206
#	275189
#	291163
#	307551
#	326207
#
# Disc length: 4688
#
# Revision: 1
# Processed by: cddbd v1.5.1PL0 Copyright (c) Steve Scherf et al.
# Submitted via: CDex 1.51
# Normalized: r0:DSETVAR1,TDELIM( - )
#
DISCID=54124e16
DTITLE=Various Artist - BMT #42 - Blues
DYEAR=2004
DGENRE=Blues
TTITLE0=Robert Cray - Phone Booth
TTITLE1=Albert King - Born Under a Bad Sign
TTITLE2=John Mayall - All Your Love
TTITLE3=Muddy Waters - I Want to be Loved
TTITLE4=Bob Margolin - I Can Get Behind That
TTITLE5=Charlie Musselwhite - Crazy For My Baby
TTITLE6=Jimmy Rogers All Stars - Gonna Shoot You Right Down (Boom Boom)
TTITLE7=Gordon Bonham Blues Band - Coffee Song
TTITLE8=U. P. Wilson - Half Step
TTITLE9=Danny Gatton and Joey DeFrancesco - Fine
TTITLE10=Double Trouble - In the Middle of the Night
TTITLE11=Steve Morse - Travis Walk
TTITLE12=Stevie Ray Vaughan - Scuttle Buttin'
TTITLE13=Mike Milligan and Steam Shovel - Blues Late at Night
TTITLE14=Stevie Ray Vaughan and Double Trouble - The Sky is Crying
TTITLE15=Dick Dale And His Del-Tones - Pipeline (With Stevie Ray Vaughn)
TTITLE16=Joe Bonamassa - So, It's Like That
TTITLE17=Indigenous - Movin' On
TTITLE18=Chris Aaron Band with Bill Lordan - Soul Searching
TTITLE19=Johnny Winter - Master Mechanic
TTITLE20=Ian Moore - Train Tracks
TTITLE21=Gary Moore - There's a Hole
EXTD=YEAR: 2004
EXTT0=
EXTT1=
EXTT2=
EXTT3=
EXTT4=
EXTT5=
EXTT6=
EXTT7=
EXTT8=
EXTT9=
EXTT10=
EXTT11=
EXTT12=
EXTT13=
EXTT14=
EXTT15=
EXTT16=
EXTT17=
EXTT18=
EXTT19=
EXTT20=
EXTT21=
PLAYORDER=
